Coordinates
version=1
nRows=17
nColumns=38
inDegrees=yes

Units are S.I. units (second, meters, Newtons, ...)
Angles are in degrees.

endheader
time	pelvis_tilt	pelvis_list	pelvis_rotation	pelvis_tx	pelvis_ty	pelvis_tz	hip_flexion_r	hip_adduction_r	hip_rotation_r	knee_angle_r	ankle_angle_r	subtalar_angle_r	mtp_angle_r	hip_flexion_l	hip_adduction_l	hip_rotation_l	knee_angle_l	ankle_angle_l	subtalar_angle_l	mtp_angle_l	lumbar_extension	lumbar_bending	lumbar_rotation	arm_flex_r	arm_add_r	arm_rot_r	elbow_flex_r	pro_sup_r	wrist_flex_r	wrist_dev_r	arm_flex_l	arm_add_l	arm_rot_l	elbow_flex_l	pro_sup_l	wrist_flex_l	wrist_dev_l
      0.00000000	     -7.83238522	     -1.07488671	      4.56774311	     -0.29138627	      0.92114295	      0.36273145	     11.95573641	     -5.53159902	     -1.82940326	    -14.88270033	     -3.13039467	      0.00000000	      0.00000000	      9.49877302	     -5.57595444	      0.09093089	     -8.90571974	     -1.70657690	      0.00000000	      0.00000000	      4.88339941	      1.49900885	     -4.62818083	     -8.83317106	    -58.87659143	     58.34084658	    102.18315032	     88.13863192	      0.00000000	      0.00000000	    -13.28996570	    -55.42287481	     55.92526808	    110.03483478	      3.53156357	      0.00000000	      0.00000000
      0.00250000	     -7.82582382	     -1.08914274	      4.57830981	     -0.29134767	      0.92115191	      0.36274088	     11.93113396	     -5.51415031	     -1.83105354	    -14.85715718	     -3.13304016	      0.00000000	      0.00000000	      9.49864441	     -5.59307252	      0.08592327	     -8.91318195	     -1.73256297	      0.00000000	      0.00000000	      4.89042089	      1.50857827	     -4.62894009	     -8.81570325	    -58.85431957	     58.38069738	    102.10799314	     88.15064877	      0.00000000	      0.00000000	    -13.23485056	    -55.39357093	     55.95501771	    109.99784973	      3.59574249	      0.00000000	      0.00000000
      0.00500000	     -7.82902635	     -1.08136645	      4.58086463	     -0.29139036	      0.92115345	      0.36273374	     11.94837938	     -5.52614488	     -1.82970866	    -14.88000047	     -3.12549385	      0.00000000	      0.00000000	      9.50992879	     -5.58213057	      0.10524245	     -8.92595141	     -1.70912717	      0.00000000	      0.00000000	      4.90852805	      1.49606362	     -4.60278891	     -8.78572968	    -58.83849774	     58.45207924	    102.02783158	     88.13049794	      0.00000000	      0.00000000	    -13.06802095	    -55.38108381	     56.12280984	    109.96886980	      3.55671456	      0.00000000	      0.00000000
      0.00750000	     -7.83345434	     -1.07699810	      4.59417889	     -0.29141057	      0.92116933	      0.36272820	     11.95528242	     -5.52982237	     -1.82222232	    -14.89253410	     -3.09378045	      0.00000000	      0.00000000	      9.53339019	     -5.57520044	      0.13021324	     -8.95002479	     -1.69858389	      0.00000000	      0.00000000	      4.93360371	      1.47955796	     -4.61007826	     -8.66096773	    -58.81950603	     58.63270228	    101.93818247	     88.10692977	      0.00000000	      0.00000000	    -12.94023586	    -55.36989494	     56.26327618	    109.94320799	      3.57332195	      0.00000000	      0.00000000
      0.01000000	     -7.79657306	     -1.10486341	      4.58975846	     -0.29139278	      0.92122761	      0.36273084	     11.89881483	     -5.49702016	     -1.82269740	    -14.85086406	     -3.17515131	      0.00000000	      0.00000000	      9.50810380	     -5.60969084	      0.11911643	     -8.97187211	     -1.69246416	      0.00000000	      0.00000000	      4.89855691	      1.51435662	     -4.57661612	     -8.68918819	    -58.79841463	     58.61785161	    101.84779781	     88.11340206	      0.00000000	      0.00000000	    -12.82127734	    -55.33581262	     56.36870674	    109.91152182	      3.56373622	      0.00000000	      0.00000000
      0.01250000	     -7.75973309	     -1.01622142	      4.57520755	     -0.29134715	      0.92123431	      0.36273889	     11.87614293	     -5.59529887	     -1.90277093	    -14.89028240	     -3.08954490	      0.00000000	      0.00000000	      9.47850292	     -5.52097088	      0.02684819	     -9.01859436	     -1.66135590	      0.00000000	      0.00000000	      4.84344213	      1.41430589	     -4.51431703	     -8.78456970	    -58.75085073	     58.52264410	    101.76643582	     88.21733196	      0.00000000	      0.00000000	    -12.77404179	    -55.32935739	     56.31065649	    109.97950420	      3.81235878	      0.00000000	      0.00000000
      0.01500000	     -7.81070603	     -1.06654252	      4.59190433	     -0.29141638	      0.92120983	      0.36292813	     11.95270836	     -5.51960032	     -1.78867786	    -14.92205937	     -3.12234424	      0.00000000	      0.00000000	      9.57043954	     -5.58483910	      0.07700913	     -9.05711132	     -1.68044374	      0.00000000	      0.00000000	      4.87954915	      1.44092385	     -4.53387451	     -8.76656766	    -58.67834955	     58.61259447	    101.64767378	     88.16317403	      0.00000000	      0.00000000	    -12.79335453	    -55.30190192	     56.33852470	    109.85346550	      3.87296283	      0.00000000	      0.00000000
      0.01750000	     -7.83942462	     -1.08407941	      4.56792664	     -0.29134525	      0.92115665	      0.36279171	     11.95300274	     -5.51240855	     -1.78851212	    -14.86871308	     -3.10513242	      0.00000000	      0.00000000	      9.57142659	     -5.58895536	      0.11442247	     -9.01420487	     -1.68070379	      0.00000000	      0.00000000	      4.94912980	      1.47720493	     -4.52023134	     -8.68060558	    -58.69763658	     58.71137754	    101.55007894	     88.11429110	      0.00000000	      0.00000000	    -12.67990622	    -55.23325380	     56.52369619	    109.84328345	      3.53714925	      0.00000000	      0.00000000
      0.02000000	     -7.86548330	     -1.09640444	      4.51001961	     -0.29140945	      0.92115910	      0.36283703	     11.99986082	     -5.48721569	     -1.67803480	    -14.86694380	     -3.13043974	      0.00000000	      0.00000000	      9.59640970	     -5.60496477	      0.11136596	     -9.01776211	     -1.70858228	      0.00000000	      0.00000000	      4.96557724	      1.49853395	     -4.49258483	     -8.56739908	    -58.67628952	     58.82378611	    101.41550693	     88.23831130	      0.00000000	      0.00000000	    -12.71032867	    -55.16862777	     56.55033765	    109.77555421	      4.48032394	      0.00000000	      0.00000000
      0.02250000	     -7.90833999	     -1.11332154	      4.50379479	     -0.29133639	      0.92107986	      0.36287401	     12.05729467	     -5.46836096	     -1.66104269	    -14.90464028	     -3.11301405	      0.00000000	      0.00000000	      9.65814394	     -5.62268065	      0.09333537	     -9.05157022	     -1.66150176	      0.00000000	      0.00000000	      5.01474691	      1.51232659	     -4.49224952	     -8.56316852	    -58.65425683	     58.87026501	    101.32847325	     88.30665629	      0.00000000	      0.00000000	    -12.80014739	    -55.10313626	     56.50855423	    109.65797238	      5.95706235	      0.00000000	      0.00000000
      0.02500000	     -7.83571721	     -1.08257157	      4.58785968	     -0.29146064	      0.92118929	      0.36280502	     11.97075989	     -5.51835995	     -1.81229332	    -14.89874238	     -3.12670200	      0.00000000	      0.00000000	      9.62499713	     -5.58181818	      0.17547291	     -9.08508591	     -1.71596713	      0.00000000	      0.00000000	      4.94095823	      1.46821854	     -4.58315273	     -8.28702953	    -58.61922704	     59.22441668	    101.21443412	     88.10027786	      0.00000000	      0.00000000	    -12.54369250	    -55.12217110	     56.76735404	    109.73761558	      3.59307952	      0.00000000	      0.00000000
      0.02750000	     -7.86493853	     -1.07340306	      4.55056532	     -0.29134795	      0.92110649	      0.36290467	     11.99689700	     -5.51718275	     -1.76563913	    -14.89420937	     -3.08114608	      0.00000000	      0.00000000	      9.66091890	     -5.58172635	      0.08108863	     -9.12652985	     -1.60783224	      0.00000000	      0.00000000	      4.95120684	      1.45269377	     -4.58356144	     -8.28312076	    -58.56210132	     59.22888293	    101.09508398	     88.15794557	      0.00000000	      0.00000000	    -12.79904035	    -55.04525675	     56.49215934	    109.71580275	      3.86142306	      0.00000000	      0.00000000
      0.03000000	     -7.89665527	     -1.08625182	      4.51456200	     -0.29131114	      0.92112126	      0.36295010	     12.04804921	     -5.50024033	     -1.75872376	    -14.91031889	     -3.08226480	      0.00000000	      0.00000000	      9.65226397	     -5.58974553	      0.19703825	     -9.05931151	     -1.61037996	      0.00000000	      0.00000000	      4.99633945	      1.47498982	     -4.57819477	     -8.12854501	    -58.53856347	     59.45873985	    100.97319404	     88.14072811	      0.00000000	      0.00000000	    -12.76877547	    -54.98056020	     56.62419746	    109.59586481	      3.78892726	      0.00000000	      0.00000000
      0.03250000	     -7.86742056	     -1.08428936	      4.54105801	     -0.29145790	      0.92111721	      0.36299882	     12.01970948	     -5.49212795	     -1.71514289	    -14.91012749	     -3.09860130	      0.00000000	      0.00000000	      9.72412864	     -5.59786448	      0.10635426	     -9.21038766	     -1.62594792	      0.00000000	      0.00000000	      4.93382219	      1.46193179	     -4.60033096	     -8.04418438	    -58.49125733	     59.56324551	    100.85263947	     88.10648610	      0.00000000	      0.00000000	    -12.71134398	    -54.97478449	     56.66101939	    109.64750656	      3.55489739	      0.00000000	      0.00000000
      0.03500000	     -7.90287438	     -1.07024293	      4.55869868	     -0.29148770	      0.92104849	      0.36300323	     12.06392237	     -5.51302840	     -1.72680969	    -14.92052580	     -3.08684132	      0.00000000	      0.00000000	      9.78244433	     -5.57422955	      0.13659094	     -9.23478814	     -1.62253947	      0.00000000	      0.00000000	      4.95285125	      1.43689301	     -4.64910508	     -7.96448975	    -58.43762295	     59.64955858	    100.73719212	     88.11218522	      0.00000000	      0.00000000	    -12.78865220	    -54.93275473	     56.61974840	    109.61889460	      3.55953400	      0.00000000	      0.00000000
      0.03750000	     -7.89069140	     -1.09052086	      4.52275206	     -0.29158787	      0.92106675	      0.36308179	     12.07270144	     -5.47995372	     -1.68534700	    -14.92196884	     -3.10972008	      0.00000000	      0.00000000	      9.80968570	     -5.60564340	      0.12714751	     -9.30147430	     -1.62284282	      0.00000000	      0.00000000	      4.91336292	      1.46515441	     -4.63494303	     -7.82002301	    -58.40700064	     59.82733483	    100.58430366	     88.19142702	      0.00000000	      0.00000000	    -12.76869953	    -54.88319014	     56.71395355	    109.53746264	      4.16449485	      0.00000000	      0.00000000
      0.04000000	     -7.87740623	     -1.09498455	      4.50808215	     -0.29172048	      0.92106325	      0.36310673	     12.07677740	     -5.47013687	     -1.64555329	    -14.93801554	     -3.11097168	      0.00000000	      0.00000000	      9.81932633	     -5.60696865	      0.16561411	     -9.32466195	     -1.63314340	      0.00000000	      0.00000000	      4.87986977	      1.47852580	     -4.66008212	     -7.58356062	    -58.37508610	     60.10240373	    100.45973569	     88.24598005	      0.00000000	      0.00000000	    -12.75868028	    -54.83892171	     56.81260854	    109.47074882	      4.93083690	      0.00000000	      0.00000000
